<?xml version="1.0" encoding="utf-8"?>
<!-- Generator: Adobe Illustrator 23.0.3, SVG Export Plug-In . SVG Version: 6.00 Build 0)  -->
<svg version="1.1" id="Layer_1_Image" xmlns="http://www.w3.org/2000/svg" xmlns:xlink="http://www.w3.org/1999/xlink" x="0px"
	 y="0px" viewBox="0 0 1485.7 1716.1" style="enable-background:new 0 0 1485.7 1716.1;" xml:space="preserve">
<style type="text/css">
	.st0{fill:none;}
	.st1{fill:#231F20;}
</style>
<title>leologo</title>
<polygon class="st0" points="738.5,4.7 0.6,426.4 0.6,1279.4 738.5,1708.4 1473.9,1284.3 1473.9,431.3 "/>
<g id="logo-leo">
	<path class="st1" d="M1479.2,431.2L746.6,5.7L4.4,427.4v848.5l741,433.5l736.3-431L1479.2,431.2z M855.4,1495.4
		c-50.5,63.9-87.1,61.6-118.2,59.8c-31-1.8-62.7-10.3-105.8-59.8c-52.9-60.8-120.8-100.8,112.8-100.5
		C977.8,1395.3,905.9,1431.5,855.4,1495.4z M1280.7,471.9c-37.4,49-54.6,114.8-7.3,374.5c47.2,259.7-139.6,449.7-297,494.8
		c-161.6,46.3-199.5-15.3-202.6-80.2c-3.1-64.9,31-66.4,111-106.2s87.2-84.4,29.2-128.4c0,0-62.1,76.6-170.9,70.7
		c-108.8,5.9-170.9-70.7-170.9-70.7c-58,44-50.8,88.6,29.2,128.4s114.1,41.3,111,106.2c-3.1,64.9-41,126.5-202.6,80.2
		c-157.3-45-344.2-235-297-494.8c47.2-259.7,30.1-325.5-7.3-374.5c-45.8-60-3.8-55-3.8-55c94.3,30,118.3,63,308.1-60.7
		c0,0,101.3-88.1,233.3-86.2c132.1-1.9,233.4,86.2,233.4,86.2c189.8,123.7,213.7,90.7,308.1,60.7
		C1284.5,416.9,1326.5,411.9,1280.7,471.9z"/>
	<path class="st1" d="M1126.4,704.4c0,0-72-20-169.5,12.4c-97.5,32.5-101.7,109.5-83.4,145.4c0,0,30.3-13.8,81.6-15.9
		c51.2-2.1,115.5-8.8,159.5-78.7C1158.5,697.8,1126.4,704.4,1126.4,704.4z"/>
	<path class="st1" d="M531.5,716.8C434,684.4,362,704.4,362,704.4s-32.2-6.7,11.8,63.3c44,69.9,108.2,76.6,159.5,78.7
		c51.2,2.1,81.6,15.9,81.6,15.9C633.2,826.4,629,749.3,531.5,716.8z"/>
</g>
</svg>
