<?xml version="1.0" standalone="no"?>
<!DOCTYPE svg PUBLIC "-//W3C//DTD SVG 20010904//EN"
 "http://www.w3.org/TR/2001/REC-SVG-20010904/DTD/svg10.dtd">
<svg version="1.0" xmlns="http://www.w3.org/2000/svg"
 width="1705.000000pt" height="1705.000000pt" viewBox="0 0 1705.000000 1705.000000"
 preserveAspectRatio="xMidYMid meet">
<metadata>
Created by potrace 1.11, written by Peter Selinger 2001-2013
</metadata>
<g transform="translate(0.000000,1705.000000) scale(0.100000,-0.100000)"
fill="#000000" stroke="none">
<path d="M8260 16879 c-151 -87 -286 -164 -300 -171 -14 -7 -48 -27 -77 -45
-29 -18 -54 -33 -56 -33 -3 0 -81 -43 -173 -96 -93 -53 -189 -108 -214 -122
-25 -14 -122 -69 -216 -123 -185 -106 -225 -128 -294 -167 -25 -14 -160 -90
-300 -170 -140 -80 -275 -156 -299 -170 -25 -14 -67 -38 -93 -53 -27 -16 -51
-29 -53 -29 -3 0 -29 -16 -59 -35 -30 -19 -58 -35 -61 -35 -3 0 -22 -10 -43
-23 -20 -13 -68 -41 -106 -61 -38 -21 -193 -109 -345 -195 -152 -87 -429 -245
-616 -351 -187 -106 -448 -254 -580 -330 -132 -75 -247 -139 -255 -143 -8 -4
-24 -13 -35 -20 -11 -7 -67 -39 -125 -72 -58 -33 -114 -65 -125 -72 -11 -7
-27 -15 -35 -19 -8 -4 -48 -27 -88 -51 -41 -24 -75 -43 -77 -43 -2 0 -49 -27
-105 -60 -56 -33 -103 -60 -104 -60 -2 0 -79 -43 -172 -96 -93 -53 -194 -110
-224 -127 -30 -17 -72 -41 -92 -54 -21 -13 -39 -23 -41 -23 -2 0 -44 -23 -93
-51 -49 -29 -114 -65 -144 -82 -30 -17 -67 -38 -82 -49 -14 -10 -28 -18 -31
-18 -3 0 -219 -122 -372 -210 -16 -9 -104 -59 -195 -110 -91 -51 -178 -101
-195 -110 -124 -72 -330 -188 -375 -213 -30 -16 -66 -37 -80 -47 -14 -9 -29
-19 -35 -21 -5 -2 -45 -23 -87 -47 l-76 -43 0 -4243 0 -4242 21 -14 c31 -19
445 -262 662 -388 99 -57 196 -114 215 -127 28 -18 443 -260 574 -335 17 -9
65 -37 106 -62 41 -25 95 -56 120 -70 25 -14 146 -85 270 -158 124 -73 239
-141 255 -149 17 -9 41 -24 55 -32 32 -20 860 -505 892 -522 12 -7 42 -25 65
-40 24 -15 45 -27 48 -27 3 0 22 -11 43 -23 30 -20 170 -102 232 -137 8 -5
105 -61 215 -126 110 -65 252 -148 315 -184 63 -37 221 -129 350 -205 213
-125 307 -180 380 -222 55 -32 103 -60 181 -107 46 -27 97 -56 113 -66 17 -9
96 -56 176 -102 80 -47 161 -95 180 -106 19 -11 98 -57 175 -102 77 -46 154
-91 170 -100 17 -9 123 -71 235 -137 113 -67 221 -129 240 -140 34 -20 479
-280 532 -312 42 -25 232 -135 243 -141 9 -4 141 -83 305 -180 l45 -27 65 40
c36 22 85 52 110 66 26 14 130 76 233 136 103 61 195 115 205 120 86 49 262
152 282 165 14 10 46 29 71 43 43 23 156 89 634 370 94 54 190 111 215 125 25
13 57 33 72 43 14 11 28 19 31 19 3 0 85 48 183 106 99 58 195 115 214 125 19
11 42 23 50 29 19 12 106 63 435 255 149 87 451 264 672 394 222 130 411 241
420 246 26 15 205 118 225 130 58 34 563 330 1118 655 228 134 480 281 560
328 443 260 901 528 941 551 25 14 177 103 336 196 l291 170 -3 1200 c-2 660
-7 2168 -10 3350 -4 1183 -7 2549 -9 3038 l-2 887 -197 115 c-108 63 -201 115
-207 115 -5 0 -10 5 -10 10 0 6 -4 10 -8 10 -7 0 -585 333 -972 560 -128 75
-856 498 -925 537 -38 22 -135 78 -215 125 -80 46 -185 108 -235 137 -49 29
-97 56 -105 62 -8 5 -69 40 -135 78 -66 38 -230 133 -365 211 -135 78 -258
150 -275 160 -16 9 -253 146 -525 305 -272 158 -508 295 -525 305 -16 9 -118
68 -225 130 -107 62 -209 121 -226 130 -28 16 -170 100 -204 120 -30 19 -356
208 -400 232 -46 26 -512 296 -840 488 -102 59 -201 117 -220 127 -57 32 -401
232 -453 264 -27 16 -56 29 -65 28 -9 -1 -141 -72 -292 -160z m615 -2494 c22
-3 87 -13 145 -21 58 -8 125 -20 150 -25 25 -6 54 -12 65 -15 11 -2 34 -6 50
-10 259 -53 696 -225 1000 -394 169 -94 470 -295 568 -381 9 -8 214 -139 323
-206 560 -347 1049 -579 1349 -639 134 -27 200 -35 305 -38 176 -5 330 19 530
81 47 15 90 28 95 29 6 2 75 26 155 54 344 121 356 123 432 93 80 -32 87 -127
20 -267 -34 -72 -142 -243 -162 -256 -21 -15 -129 -190 -175 -285 -79 -164
-140 -375 -161 -560 -3 -33 -8 -67 -9 -75 -17 -92 -23 -507 -11 -730 5 -74 9
-157 11 -185 3 -61 15 -197 20 -245 2 -19 7 -62 10 -95 8 -77 12 -110 35 -295
18 -145 20 -157 35 -260 4 -25 8 -56 10 -70 2 -14 6 -44 10 -68 4 -23 8 -52
10 -65 4 -37 15 -111 20 -137 3 -14 7 -41 10 -60 3 -19 10 -62 16 -95 6 -33
12 -71 14 -85 2 -14 15 -91 29 -172 51 -293 75 -434 81 -478 3 -25 8 -63 11
-85 26 -180 37 -587 21 -800 -16 -213 -24 -284 -54 -445 -8 -47 -17 -96 -19
-110 -25 -146 -125 -486 -198 -678 -60 -157 -174 -401 -243 -522 -11 -19 -35
-62 -53 -95 -63 -113 -271 -424 -315 -471 -5 -6 -21 -26 -35 -44 -136 -183
-442 -503 -624 -655 -27 -22 -60 -50 -75 -63 -101 -90 -371 -280 -541 -383
-190 -113 -516 -271 -639 -309 -14 -5 -66 -23 -116 -40 -49 -18 -99 -34 -109
-36 -10 -2 -58 -14 -105 -28 -163 -46 -330 -80 -596 -121 -22 -3 -128 -8 -235
-9 -195 -4 -293 5 -435 38 -70 16 -207 76 -273 118 -155 102 -265 247 -328
437 -30 90 -36 115 -49 206 -3 19 -8 52 -11 73 -7 49 -6 248 2 309 15 122 85
264 165 339 97 90 253 178 576 325 374 170 552 265 694 370 268 198 377 402
329 614 -12 55 -56 145 -101 211 -34 50 -143 161 -215 221 l-51 42 -69 -70
c-225 -229 -554 -431 -865 -533 -147 -49 -141 -47 -304 -76 -158 -27 -221 -31
-485 -30 -295 1 -332 4 -555 45 -192 36 -437 136 -685 280 -90 52 -312 230
-398 319 -71 73 -53 74 -151 -7 -88 -74 -187 -191 -229 -271 -103 -199 -76
-382 83 -569 148 -174 360 -304 890 -547 423 -194 540 -267 635 -395 81 -110
112 -227 111 -425 0 -74 -3 -146 -5 -160 -3 -14 -7 -45 -10 -70 -10 -73 -15
-96 -42 -183 -53 -168 -152 -318 -272 -410 -57 -44 -185 -117 -227 -130 -196
-59 -260 -69 -465 -72 -102 -2 -214 1 -250 5 -36 4 -91 11 -123 15 -31 3 -92
13 -134 21 -42 8 -88 16 -102 19 -30 6 -42 8 -136 29 -38 9 -78 19 -87 21 -10
3 -26 7 -35 9 -55 12 -252 73 -343 106 -212 75 -498 212 -665 317 -11 7 -33
20 -49 29 -43 24 -238 157 -326 222 -357 266 -704 619 -971 987 -65 89 -219
321 -219 329 0 2 -21 40 -46 83 -68 113 -171 326 -241 493 -112 270 -217 629
-258 886 -3 22 -7 50 -10 64 -51 323 -65 793 -31 1080 3 19 7 60 11 90 9 87
34 249 50 330 8 41 30 167 50 280 19 113 36 214 39 225 2 11 7 45 11 75 4 30
9 62 10 71 4 19 11 67 20 124 3 23 7 50 9 60 2 11 7 45 11 75 3 30 8 66 10 80
9 54 25 173 30 218 3 26 8 58 10 72 2 14 6 50 10 80 3 30 8 71 10 90 3 19 7
62 10 95 3 33 8 76 10 95 2 19 7 71 10 115 4 44 8 96 10 115 23 236 24 817 0
938 -2 10 -6 45 -10 77 -36 306 -142 573 -320 815 -148 199 -214 329 -221 427
-2 44 1 57 22 82 26 31 80 54 125 53 27 -1 119 -30 379 -122 80 -28 197 -66
261 -85 471 -137 851 -78 1467 227 358 177 858 478 1094 659 333 255 765 482
1178 619 98 33 329 94 390 105 19 3 60 10 90 16 30 5 73 12 95 15 22 3 49 7
60 9 11 2 56 7 100 11 44 4 82 8 84 10 6 6 555 -4 596 -11z m350 -11248 c39
-4 112 -9 163 -12 50 -4 102 -8 115 -10 12 -2 51 -6 87 -9 36 -4 79 -9 95 -11
333 -57 456 -117 468 -230 11 -98 -49 -188 -343 -521 -58 -65 -144 -166 -191
-224 -256 -314 -482 -480 -745 -549 -62 -17 -149 -25 -254 -25 -394 0 -630 77
-905 297 -55 44 -277 265 -339 337 -21 25 -87 97 -146 160 -184 197 -273 307
-314 390 -26 52 -32 130 -13 167 70 134 372 211 942 239 66 3 121 7 123 9 5 5
1182 -3 1257 -8z"/>
<path d="M5078 10115 c-2 -2 -36 -6 -76 -10 -41 -3 -82 -8 -91 -10 -10 -2 -41
-6 -69 -10 -29 -3 -66 -11 -84 -16 -18 -5 -45 -9 -61 -9 -70 0 -109 -50 -100
-130 16 -138 159 -423 322 -640 63 -84 216 -242 276 -286 22 -16 42 -32 45
-35 14 -17 159 -103 241 -143 211 -101 482 -164 781 -181 242 -13 296 -17 323
-20 17 -2 57 -7 90 -11 88 -10 97 -11 156 -23 30 -6 63 -13 74 -15 72 -14 162
-39 240 -65 105 -36 101 -38 135 64 109 327 19 702 -233 971 -131 141 -290
245 -532 349 -83 36 -404 129 -520 151 -22 4 -44 8 -50 9 -36 8 -281 45 -335
50 -69 7 -526 16 -532 10z"/>
<path d="M11579 10116 c-2 -2 -47 -7 -99 -10 -52 -4 -102 -9 -110 -11 -8 -2
-37 -6 -65 -10 -27 -3 -72 -10 -100 -15 -27 -5 -63 -11 -80 -14 -86 -13 -296
-67 -430 -111 -303 -99 -502 -215 -673 -394 -132 -138 -229 -320 -268 -506
-11 -54 -13 -289 -3 -345 12 -64 56 -201 69 -214 5 -5 31 0 62 12 46 18 168
54 229 68 10 2 29 6 42 9 39 9 71 15 107 21 19 2 46 7 60 9 53 10 215 26 313
30 170 9 344 23 387 31 14 2 43 7 65 10 22 2 87 16 145 29 441 100 783 349
1023 744 148 244 208 386 211 494 1 64 -1 70 -27 93 -17 14 -41 24 -60 24 -18
1 -61 7 -97 15 -36 7 -66 14 -68 14 -4 0 -87 11 -127 16 -49 7 -499 17 -506
11z"/>
</g>
</svg>
